<svg xmlns="http://www.w3.org/2000/svg" xmlns:xlink="http://www.w3.org/1999/xlink" width="283.739" height="281.262" viewBox="0 0 283.739 281.262"><defs><linearGradient id="a" x1="0.972" y1="0.572" x2="0.156" y2="0.416" gradientUnits="objectBoundingBox"><stop offset="0" stop-color="#fff"/><stop offset="1" stop-color="#fff" stop-opacity="0"/></linearGradient></defs><g transform="translate(-113.44 -4862.091)"><path d="M195.78,4885.625a111.879,111.879,0,0,1-7,48.478,65.614,65.614,0,0,0,11.5,30.457c10.6,15.226,25.7,29.625,25.293,37.884s-2.319,10.48-9.384,13.866-18.051,3.017-18.051,3.017-1.283,6,1.2,10.886a34.322,34.322,0,0,0,6.377,8.516s1.906,5.5-1.071,8.853-8.856,2.055-8.856,2.055l-34.292-4.433s-.375,9.886,9.669,18.007a37.939,37.939,0,0,0,21.058,8.333s6.151-.122,7.114,3.033-.258,8.208-3.55,9.412a24.606,24.606,0,0,0-5.579,2.89s-.484,22.233-18.434,29.636-57.386,1.445-57.386,1.445" transform="translate(58.681 -13.939)" fill="none" stroke="#fff" stroke-linecap="round" stroke-width="5"/><path d="M62.385,132.65A98.632,98.632,0,0,0,83.511,71.581a98.8,98.8,0,0,0-24.2-64.83L69.108,0A110.538,110.538,0,0,1,95.331,71.581a110.363,110.363,0,0,1-22.758,67.248ZM31.8,114.107A63.88,63.88,0,0,0,47.989,71.581,64.077,64.077,0,0,0,29.935,27.008l9.85-6.792A75.633,75.633,0,0,1,59.83,71.581a75.566,75.566,0,0,1-17.764,48.747ZM.5,95.124A29.211,29.211,0,0,0,12.467,71.581,29.281,29.281,0,0,0,0,47.651l10.16-7.005A40.858,40.858,0,0,1,24.308,71.581a40.823,40.823,0,0,1-13.149,30.011Z" transform="matrix(0.966, 0.259, -0.259, 0.966, 305.097, 4984.581)" fill="#fff"/><path d="M243.551,4893.313a111.877,111.877,0,0,1-7,48.478,65.615,65.615,0,0,0,11.5,30.458c10.6,15.226,25.7,29.625,25.293,37.884s-2.319,10.48-9.384,13.865-18.051,3.017-18.051,3.017-1.283,6,1.2,10.887a34.325,34.325,0,0,0,6.377,8.515s1.906,5.5-1.071,8.853-8.856,2.054-8.856,2.054l-34.292-4.432s-.375,9.886,9.669,18.007a37.943,37.943,0,0,0,21.058,8.333s6.151-.123,7.114,3.032-.258,8.209-3.55,9.413a24.583,24.583,0,0,0-5.579,2.89s-.484,22.233-18.434,29.636c-10.106,4.169-27.022,4.1-41.418,3.139-8.437-.556-68,1.14-74.641-53.293s22.925-118.039,48.07-164.433S243.551,4893.313,243.551,4893.313Z" transform="translate(10.91 -21.626)" fill="url(#a)"/><path d="M164.363,4875.763a19.673,19.673,0,0,1-13.541,12.962c-10.839,2.889-23.043,0-23.043,0" transform="translate(57.801 55.127)" fill="none" stroke="#fff" stroke-linecap="round" stroke-width="5"/></g></svg>